<?xml version="1.0" encoding="utf-8"?>
<!-- Generator: Adobe Illustrator 16.0.0, SVG Export Plug-In . SVG Version: 6.00 Build 0)  -->
<!DOCTYPE svg PUBLIC "-//W3C//DTD SVG 1.1//EN" "http://www.w3.org/Graphics/SVG/1.1/DTD/svg11.dtd">
<svg version="1.1" id="パス" xmlns="http://www.w3.org/2000/svg" xmlns:xlink="http://www.w3.org/1999/xlink" x="0px" y="0px"
	 width="720px" height="225px" viewBox="-96 -30 720 225" enable-background="new -96 -30 720 225" xml:space="preserve">
<g>
	<g>
		<g>
			<g>
				<g>
					<path d="M145.474,59.314c-4.766,0.529-7.187,0.831-7.187,9.679v39.771H137l-33.267-41.432h-0.149v29.482
						c0,7.79,1.586,9.453,7.106,9.688v1.433H92.923v-1.433c5.746-0.384,7.332-1.523,7.332-9.688V63.47
						c-3.102-3.78-4.308-4.156-7.332-4.156v-1.441h12.928l28.96,36.373h0.15V68.992c0-8.698-2.117-9.303-7.259-9.679v-1.44h17.772
						V59.314z"/>
					<path d="M192.13,107.935h-40.833v-1.433c4.835-0.315,6.58-0.984,6.58-6.815V66.12c0-5.975-1.816-6.429-6.58-6.806v-1.441
						h40.154l0.225,10.813h-1.89c-1.132-6.722-3.102-7.936-11.5-7.936h-10.205c-1.587,0-2.49,0-2.49,2.575v16.78h11.638
						c6.737,0,7.488-1.808,8.319-7.18h1.739v17.544h-1.739c-0.903-6.051-2.042-7.11-8.319-7.186l-11.638-0.153v18.754
						c0,3.095,0,3.178,11.264,3.178c9.453,0,13.234-2.265,16.555-9.916h2.12L192.13,107.935z"/>
					<path d="M253.001,59.314c-4.007,0.296-5.977,0.529-11.268,7.104l-11.04,13.762l14.523,20.725
						c2.944,4.156,4.461,5.213,8.385,5.597v1.433h-22.456v-1.433c3.778-0.234,5.825-0.234,5.825-2.582
						c0-1.357-2.654-5.432-3.857-7.177l-7.183-10.587l-9.002,11.184c-1.587,1.974-3.934,4.926-3.934,6.357
						c0,2.419,2.799,2.65,5.75,2.802v1.436h-17.619v-1.436c4.156-0.313,4.994-1.289,10.966-8.624l11.869-14.592l-8.243-12.1
						c-7.71-11.341-9.298-11.494-13.689-11.87v-1.44h22.838v1.441c-3.928,0.069-5.743,0.15-5.743,2.42
						c0,1.511,1.361,4.006,6.426,11.19l3.174,4.462l8.549-10.436c1.735-2.192,3.025-3.704,3.025-5.146
						c0-2.341-2.726-2.422-5.296-2.491v-1.441h17.995v1.441H253.001z"/>
					<path d="M292.927,107.935h-22.082v-1.433c6.885-0.315,7.111-2.045,7.111-7.641V61.058h-4.082
						c-8.322,0-10.361,1.435-12.021,9.674h-1.818l0.458-12.858h42.648l0.446,12.858h-1.814c-1.582-8.317-3.704-9.674-12.021-9.674
						h-4.084v38.628c0,5.145,0.907,6.581,7.259,6.815L292.927,107.935L292.927,107.935z"/>
					<path d="M372.252,73.83c-1.895-7.939-7.338-13.985-16.629-13.985c-3.788,0-8.175,1.508-11.346,4.604
						c-2.951,2.885-6.281,7.724-6.281,18.612c0,16.029,9.001,22.613,18.522,22.613c9.308,0,14.749-5.372,17.092-7.642l1.367,1.356
						c-0.079,0.152-6.581,9.606-20.497,9.606c-12.174,0-25.258-7.258-25.258-26.092c0-16.938,13.016-26.754,26.02-26.754
						c6.734,0,11.34,3.165,13.007,3.165c0.371,0,2.872,0,3.471-2.496h1.591l0.688,17.01h-1.747V73.83z"/>
					<path d="M414.978,90.692c0,7.48-5.302,18-16.791,18c-9.749,0-16.563-7.787-16.563-18c0-9.304,6.214-17.544,16.339-17.544
						C407.866,73.149,414.978,79.732,414.978,90.692z M409.027,90.871c0-9.376-4.036-15.206-10.998-15.206
						c-4.761,0-10.651,7.434-10.513,15.296c0.113,7.004,2.104,15.498,11.174,15.498C402.552,106.462,409.027,101.687,409.027,90.871
						z"/>
					<path d="M420.753,104.678c0-2.41,1.897-4.307,4.167-4.307c2.271,0,4.229,1.962,4.229,4.307c0,2.802-2.644,4.086-4.229,4.086
						C423.332,108.764,420.753,107.557,420.753,104.678z"/>
					<path d="M438.805,117.155c4.985-3.168,6.198-6.578,6.198-8.009c0-0.685-0.531-1.052-1.054-1.052
						c-0.158,0-0.382,0.066-0.689,0.14c-0.219,0.076-0.604,0.15-1.128,0.15c-1.973,0-4.697-0.745-4.697-3.779
						c0-3.25,2.498-4.385,4.39-4.385c1.743,0,6.115,0.986,6.115,7.262c0,5.368-6.185,10.356-8.459,11.114L438.805,117.155z"/>
					<path d="M483.297,59.314c-5.141,0.296-7.038,0.831-7.038,6.806v35.764c0,3.021,1.364,3.095,7.636,3.095
						c11.346,0,16.188-0.301,20.5-10.194h1.883l-3.632,13.15H461.97v-1.433c4.843-0.315,6.586-0.984,6.586-6.815V66.12
						c0-5.975-1.821-6.429-6.586-6.806v-1.441h21.328L483.297,59.314L483.297,59.314z"/>
					<path d="M528.437,76.327h-7.634v21.624c0,2.351,0,6.804,3.859,6.804c2.416,0,3.774-1.67,4.616-2.648l0.979,0.839
						c-1.821,3.24-5.377,5.747-8.853,5.747c-3.86,0-6.953-2.045-6.953-9.604V76.327h-4.018c-0.14-0.078-0.296-0.306-0.296-0.532
						c0-0.91,1.665-1.362,3.328-3.029c2.875-2.942,3.999-4.61,6.801-8.618c0.535,0,0.535,0.384,0.535,0.99v8.771h7.634V76.327
						L528.437,76.327z"/>
					<path d="M569.189,104.755c-3.62,1.289-7.104,2.501-11.105,3.939l-0.309-0.232v-4.61h-0.151
						c-1.348,2.041-4.155,4.843-9.75,4.843c-2.956,0-13.759-1.516-13.759-16.938c0-9.916,7.181-18.607,15.644-18.607
						c3.259,0,5.53,1.058,8.018,3.252V64.605c0-2.268,0-3.854-3.323-3.854c-0.446,0-1.207,0-1.815,0.076V59.61
						c3.786-0.976,7.493-2.038,11.115-3.323l0.375,0.153v42.876c0,3.093,0,4.604,5.062,4.233V104.755L569.189,104.755z
						 M557.776,82.83c-0.523-5.138-4.234-7.562-7.787-7.562c-4.233,0-9.375,3.707-9.375,13.986c0,11.265,5.445,15.501,10.437,15.501
						c3.173,0,6.124-1.81,6.726-4.537V82.83z"/>
					<path d="M575.555,104.678c0-2.41,1.885-4.307,4.149-4.307c2.266,0,4.244,1.962,4.244,4.307c0,2.802-2.649,4.086-4.244,4.086
						C578.111,108.764,575.555,107.557,575.555,104.678z"/>
				</g>
				<g>
					<g>
						<g>
							<g>
								<path fill="#003C88" d="M23.534,58.863c4.427-3.244,26.716,19.338,29.654,32.494l8.629-5.801
									c-6.063-4.451-16.439-14.428-19.409-17.393c-2.961-2.97-21.301-19.947-23.454-11.999
									c-1.905-4.132-5.469-8.245-13.887-13.282c12.635,20.186,15.723,51.995,6.412,74.229l37.4-22.801
									C37.232,83.804,19.448,61.858,23.534,58.863z"/>
								<path fill="#003C88" d="M-5.447,36.658c-15.035-7.328-38.9-18.443-44.104-20.669v6.071c0,0,24.827,10.457,28.857,13.88
									c8.382,7.12,14.133,45.69,13.346,52.177c-1.213,9.974-32.634,18.065-48.601,22.921v47.986l59.502-36.268
									C16.361,96.89,15.958,63.067-5.447,36.658z"/>
							</g>
						</g>
					</g>
				</g>
			</g>
		</g>
	</g>
	
		<rect x="-96" y="-24.063" display="none" fill="none" stroke="#231815" stroke-width="0.25" stroke-miterlimit="10" width="720" height="213.126"/>
</g>
</svg>
